<?xml version="1.0" encoding="UTF-8" standalone="no"?>
<svg
   xmlns:dc="http://purl.org/dc/elements/1.1/"
   xmlns:cc="http://creativecommons.org/ns#"
   xmlns:rdf="http://www.w3.org/1999/02/22-rdf-syntax-ns#"
   xmlns:svg="http://www.w3.org/2000/svg"
   xmlns="http://www.w3.org/2000/svg"
   xmlns:sodipodi="http://sodipodi.sourceforge.net/DTD/sodipodi-0.dtd"
   xmlns:inkscape="http://www.inkscape.org/namespaces/inkscape"
   height="69"
   viewBox="0 0 187 69"
   width="187"
   version="1.1"
   id="svg12"
   sodipodi:docname="icon_logo.svg"
   inkscape:version="1.0 (4035a4fb49, 2020-05-01)">
  <metadata
     id="metadata18">
    <rdf:RDF>
      <cc:Work
         rdf:about="">
        <dc:format>image/svg+xml</dc:format>
        <dc:type
           rdf:resource="http://purl.org/dc/dcmitype/StillImage" />
        <dc:title></dc:title>
      </cc:Work>
    </rdf:RDF>
  </metadata>
  <defs
     id="defs16" />
  <sodipodi:namedview
     inkscape:document-rotation="0"
     pagecolor="#ffffff"
     bordercolor="#666666"
     borderopacity="1"
     objecttolerance="10"
     gridtolerance="10"
     guidetolerance="10"
     inkscape:pageopacity="0"
     inkscape:pageshadow="2"
     inkscape:window-width="1920"
     inkscape:window-height="1051"
     id="namedview14"
     showgrid="false"
     inkscape:zoom="9.1810442"
     inkscape:cx="78.218768"
     inkscape:cy="37.715924"
     inkscape:window-x="-9"
     inkscape:window-y="-9"
     inkscape:window-maximized="1"
     inkscape:current-layer="g8" />
  <path
     d="m 153.85163,20.208331 v 2.289385 h 1.2433 v -2.289385 z m -75.803248,1.11518 c -1.442918,0 -2.598775,0.613023 -3.461464,1.824172 -0.864353,1.220905 -1.29415,2.970586 -1.29415,5.250897 v 5.812229 c 0,2.33098 0.457733,4.114995 1.370451,5.354315 0.916219,1.249076 2.122364,1.86849 3.622486,1.86849 1.136933,0 2.071872,-0.305283 2.808695,-0.919479 0.737735,-0.610169 1.243037,-1.284469 1.517339,-2.019968 v -6.971764 h -4.348748 v 1.414299 h 3.105422 v 5.092271 c -0.199158,0.569368 -0.55183,1.047154 -1.05962,1.440144 -0.50604,0.398738 -1.182129,0.594514 -2.023117,0.594514 -1.151878,0 -2.063771,-0.497618 -2.740844,-1.488148 -0.677059,-0.997997 -1.01723,-2.445742 -1.01723,-4.346221 v -5.845505 c 0,-1.832813 0.31507,-3.228848 0.943764,-4.191188 0.63046,-0.964665 1.489706,-1.443831 2.576929,-1.443831 1.074506,0 1.88886,0.359582 2.435727,1.070882 0.550006,0.717028 0.843101,1.730737 0.884434,3.046401 h 1.15004 l 0.01978,-0.07756 c -0.03517,-1.716741 -0.440621,-3.058874 -1.21221,-4.021403 -0.773773,-0.958918 -1.867303,-1.443831 -3.277728,-1.443831 z m 11.014445,5.036875 c -1.040204,0 -1.896817,0.425849 -2.562895,1.281348 -0.668711,0.857806 -0.98478,1.825818 -0.952243,2.920862 l 0.01978,0.07754 1.152876,0.01475 c 0,-0.807231 0.213655,-1.483913 0.641426,-2.038308 0.429102,-0.557892 0.975897,-0.83455 1.638864,-0.83455 0.712663,0 1.265302,0.290932 1.667075,0.867769 0.393484,0.584324 0.593388,1.392557 0.593388,2.418706 v 1.787248 h -1.941226 c -1.239362,0 -2.224937,0.398624 -2.950042,1.200127 -0.725423,0.801483 -1.087874,1.881232 -1.087874,3.227336 0,1.273767 0.251124,2.282957 0.748802,3.031654 0.500759,0.745766 1.207982,1.118885 2.127717,1.118885 0.657715,0 1.254654,-0.23359 1.791495,-0.705306 0.537694,-0.468257 0.9739,-1.066779 1.311098,-1.787249 0,0.329219 0.0158,0.652784 0.0452,0.978562 0.0303,0.32003 0.0769,0.730055 0.13846,1.233345 h 1.28567 c -0.0901,-0.468257 -0.14806,-0.938158 -0.18366,-1.425378 -0.0347,-0.480905 -0.0537,-0.984101 -0.0537,-1.502914 v -7.123205 c 0,-1.524278 -0.31552,-2.697009 -0.94377,-3.519063 -0.631769,-0.814132 -1.458739,-1.222266 -2.486646,-1.222266 z m 10.293821,0 c -0.65771,0 -1.2313,0.217519 -1.718,0.653597 -0.48493,0.441825 -0.87507,1.065512 -1.16699,1.872176 l -0.10738,-2.256299 h -1.08787 v 14.5232 h 1.23482 V 30.699101 c 0.17058,-0.895146 0.45201,-1.600528 0.8477,-2.115824 0.39305,-0.512498 0.91693,-0.771762 1.56537,-0.771762 0.67837,0 1.205332,0.368033 1.585192,1.111493 0.38162,0.743459 0.56796,1.986692 0.56796,3.725899 v 8.504134 h 1.2348 v -8.736872 -0.376655 c 0.0901,-1.218617 0.33848,-2.228129 0.74033,-3.035435 0.40403,-0.807231 0.96721,-1.203814 1.68689,-1.203814 0.68409,0 1.21351,0.36344 1.58244,1.085648 0.36668,0.721055 0.55383,1.974404 0.55383,3.755394 v 8.511697 h 1.24046 V 32.67099 c 0,-2.142482 -0.26718,-3.72987 -0.80531,-4.763487 -0.53593,-1.031311 -1.29148,-1.547231 -2.26617,-1.547231 -0.70741,0 -1.31917,0.27698 -1.8226,0.830845 -0.50341,0.552712 -0.89028,1.315683 -1.16418,2.282012 -0.21411,-1.046832 -0.55194,-1.826365 -1.00875,-2.341189 -0.45634,-0.516525 -1.02124,-0.771762 -1.692542,-0.771762 z m 14.924552,0 c -1.07671,-2e-6 -1.99607,0.60737 -2.76067,1.816799 -0.76279,1.215176 -1.14156,2.742385 -1.14156,4.575179 v 2.411332 c 0,1.829353 0.3799,3.331321 1.13873,4.505036 0.76104,1.176096 1.74071,1.76509 2.93861,1.76509 0.74608,0 1.38645,-0.170688 1.91577,-0.502194 0.53065,-0.333246 0.96437,-0.780592 1.29981,-1.336745 l -0.5058,-1.144731 c -0.31434,0.518813 -0.69212,0.914318 -1.13308,1.196421 -0.44097,0.27577 -0.96913,0.417266 -1.57666,0.417266 -0.87445,0 -1.57173,-0.463001 -2.08532,-1.399514 -0.51263,-0.934207 -0.77142,-2.105804 -0.77142,-3.511689 v -1.2075 h 6.36058 v -1.595235 c 0,-1.827632 -0.32379,-3.284244 -0.9692,-4.368341 -0.64407,-1.082453 -1.54569,-1.62108 -2.70973,-1.62108 z m 13.70451,0 c -1.07671,-2e-6 -1.9939,0.60737 -2.76067,1.816799 -0.76103,1.215176 -1.14438,2.742385 -1.14438,4.575179 v 2.411332 c 0,1.829353 0.37964,3.331321 1.14156,4.505036 0.75971,1.176096 1.74014,1.76509 2.93861,1.76509 0.74653,0 1.38365,-0.170688 1.91302,-0.502194 0.53155,-0.333246 0.96674,-0.780592 1.30263,-1.336745 l -0.50297,-1.144731 c -0.31788,0.518813 -0.69603,0.914318 -1.13874,1.196421 -0.43965,0.27577 -0.96409,0.417266 -1.57391,0.417266 -0.87753,0 -1.57448,-0.463001 -2.08532,-1.399514 -0.51571,-0.934207 -0.7714,-2.105804 -0.7714,-3.511689 v -1.2075 h 6.35768 v -1.595235 c 0,-1.827632 -0.32317,-3.284244 -0.96637,-4.368341 -0.64233,-1.082453 -1.54787,-1.62108 -2.70974,-1.62108 z m 9.93503,0 c -0.65991,0 -1.23369,0.235404 -1.72075,0.697913 -0.49153,0.460222 -0.88196,1.119831 -1.17829,1.971946 l -0.10171,-2.400177 h -1.10201 v 14.5232 h 1.23481 V 30.78798 c 0.21147,-0.906055 0.52905,-1.624406 0.95507,-2.163846 0.42426,-0.544677 0.95148,-0.812392 1.58245,-0.812392 0.70343,0 1.24306,0.335873 1.61065,1.008093 0.36974,0.67222 0.55666,1.830279 0.55666,3.489569 v 8.843883 h 1.24328 v -8.85863 c 0,-2.0298 -0.26592,-3.527949 -0.79965,-4.490289 -0.52802,-0.964098 -1.2876,-1.443831 -2.28035,-1.443831 z m 9.04775,0 c -1.12374,0 -2.00518,0.621796 -2.63914,1.861097 -0.63925,1.245615 -0.9579,2.897607 -0.9579,4.955577 l 0.003,1.986693 c 0,1.896508 0.31588,3.416778 0.94942,4.556839 0.63221,1.142197 1.5088,1.7134 2.62496,1.7134 0.60187,0 1.13405,-0.172484 1.59083,-0.520666 0.45855,-0.346442 0.84611,-0.84909 1.16134,-1.502914 v 1.757717 c 0,1.434642 -0.2139,2.515129 -0.63859,3.264392 -0.42295,0.739452 -1.07494,1.111493 -1.95816,1.111493 -0.43921,0 -0.86461,-0.07718 -1.27437,-0.236331 -0.41326,-0.153974 -0.78528,-0.370926 -1.11897,-0.653597 l -0.34189,1.4143 c 0.3913,0.286697 0.83789,0.51643 1.34218,0.690521 0.5034,0.174091 0.97493,0.262176 1.41283,0.262176 1.21827,0 2.16142,-0.51609 2.82562,-1.532465 0.66343,-1.020401 0.9918,-2.459543 0.9918,-4.320508 V 26.629973 h -1.04549 l -0.12152,2.019968 c -0.31083,-0.728523 -0.69833,-1.299971 -1.167,-1.691241 -0.46779,-0.398738 -1.01502,-0.59822 -1.63886,-0.59822 z m 15.143,0 c -0.65683,0 -1.23062,0.235404 -1.72089,0.697913 -0.49065,0.460222 -0.88109,1.119831 -1.1783,1.971946 l -0.1017,-2.400177 h -1.09919 v 14.5232 h 1.23482 V 30.78798 c 0.21059,-0.906055 0.52994,-1.624406 0.95508,-2.163846 0.42382,-0.544677 0.95191,-0.812392 1.58229,-0.812392 0.70565,0 1.24002,0.335873 1.61066,1.008093 0.36886,0.67222 0.55664,1.830279 0.55664,3.489569 v 8.843883 h 1.24046 v -8.85863 c 0,-2.0298 -0.26158,-3.527949 -0.79399,-4.490289 -0.52934,-0.964098 -1.29324,-1.443831 -2.28599,-1.443831 z m 9.26534,0 c -1.0745,-2e-6 -1.99331,0.60737 -2.75777,1.816799 -0.76278,1.215176 -1.14438,2.742385 -1.14438,4.575179 v 2.411332 c 0,1.829353 0.38098,3.331321 1.14156,4.505036 0.75753,1.176096 1.7371,1.76509 2.93861,1.76509 0.74565,0 1.3841,-0.170688 1.91302,-0.502194 0.53067,-0.333246 0.96454,-0.780592 1.30263,-1.336745 l -0.50579,-1.144731 c -0.31742,0.518813 -0.69383,0.914318 -1.13874,1.196421 -0.43922,0.27577 -0.96349,0.417266 -1.57102,0.417266 -0.87841,0 -1.57549,-0.463001 -2.08822,-1.399514 -0.51307,-0.934207 -0.7714,-2.105804 -0.7714,-3.511689 v -1.2075 h 6.36058 v -1.595235 c 0,-1.827632 -0.32362,-3.284244 -0.96637,-4.368341 -0.64454,-1.082453 -1.54931,-1.62108 -2.71264,-1.62108 z m -17.52433,0.269568 v 14.523201 h 1.2433 V 26.629954 Z m -39.57116,1.152123 c 0.76719,0 1.36645,0.393047 1.79989,1.185342 0.43085,0.791728 0.64424,1.788855 0.64424,2.987413 v 0.624065 h -5.12579 c 0.0207,-1.355368 0.27895,-2.493009 0.77706,-3.415645 0.49769,-0.919271 1.1316,-1.381061 1.90449,-1.381061 z m 13.70451,0 c 0.76674,0 1.36581,0.393047 1.79714,1.185342 0.43348,0.791728 0.64708,1.788855 0.64708,2.987413 v 0.624065 h -5.12579 c 0.0224,-1.355368 0.27919,-2.493009 0.77424,-3.415645 0.49724,-0.919271 1.13221,-1.381061 1.90737,-1.381061 z m 43.39055,0 c 0.76806,0 1.36864,0.393047 1.79988,1.185342 0.43261,0.791728 0.64426,1.788855 0.64426,2.987413 v 0.624065 h -5.12579 c 0.022,-1.355368 0.2807,-2.493009 0.77706,-3.415645 0.49505,-0.919271 1.12938,-1.381061 1.90449,-1.381061 z m -24.14026,0.02955 c 0.60935,0 1.11446,0.235575 1.51459,0.708993 0.40051,0.481472 0.71859,1.109924 0.94942,1.883255 v 7.193348 c -0.24006,0.750928 -0.56423,1.33994 -0.97486,1.76509 -0.41195,0.425169 -0.91273,0.635145 -1.50894,0.635145 -0.87007,0 -1.52429,-0.434377 -1.95252,-1.314587 -0.4335,-0.872156 -0.64708,-2.045492 -0.64708,-3.519063 v -1.986692 c 0,-1.591491 0.21916,-2.88702 0.65838,-3.880933 0.43613,-0.99225 1.09269,-1.484461 1.96105,-1.484461 z m -57.951962,6.292265 h 1.97509 v 3.142446 c -0.221152,0.795755 -0.592646,1.45111 -1.124611,1.968164 -0.531097,0.514786 -1.139783,0.768076 -1.8226,0.768076 -0.568018,0 -1.009562,-0.242457 -1.32524,-0.734838 -0.316112,-0.490661 -0.471882,-1.126656 -0.471882,-1.901803 0,-0.91755 0.249735,-1.690277 0.754444,-2.307913 0.503393,-0.621664 1.174968,-0.934245 2.014727,-0.934245 z"
     fill="#e0e0e0"
     id="path4"
     style="stroke-width:1.65387;fill:#0088aa" />
  <g
     style="fill:#0088aa"
     transform="matrix(1.0871313,0,0,1.2226364,-8.115014,-5.9038894)"
     id="g8" />
</svg>
